<?xml version="1.0" encoding="UTF-8"?>
<svg id="Layer_1" xmlns="http://www.w3.org/2000/svg" version="1.1" viewBox="0 0 450 120">
  <!-- Generator: Adobe Illustrator 29.8.2, SVG Export Plug-In . SVG Version: 2.1.1 Build 3)  -->
  <defs>
    <style>
      .st0 {
        fill: #fefefd;
      }

      .st1 {
        fill: #fefdfd;
      }

      .st2 {
        fill: #e28425;
      }
    </style>
  </defs>
  <g>
    <path class="st0" d="M6.91,59.89c0,.07,0,.15,0,.22.12,46.96,55.03,72.38,90.92,41.96,31.39-26.62,23.23-77.48-14.69-93.1C46.63-6.09,7.01,20.66,6.91,59.89Z"/>
    <path class="st2" d="M6.91,60.11l25.38,11.21.91,25.16,17.44-16.39,25.58,11.11,31.02-61.65L6.91,59.89C7.01,20.66,46.63-6.09,83.14,8.96c37.92,15.63,46.08,66.48,14.69,93.1C61.95,132.49,7.04,107.07,6.91,60.11Z"/>
    <path class="st1" d="M6.91,59.89l100.34-30.34-31.02,61.65-25.58-11.11-17.44,16.39-.91-25.16-25.38-11.21c0-.07,0-.15,0-.22ZM102.65,32.5l-68.75,39.03.62,21.21c.33-.12.54-.83.69-1.17,2.49-5.42,4.54-11.08,7.3-16.36,19.72-14.29,40.09-27.74,59.72-42.15.11-.08.8-.24.41-.56Z"/>
    <path class="st2" d="M102.65,32.5c.39.33-.3.48-.41.56-19.63,14.42-40,27.86-59.72,42.15-2.76,5.28-4.81,10.94-7.3,16.36-.15.33-.36,1.05-.69,1.17l-.62-21.21,68.75-39.03Z"/>
  </g>
  <g>
    <path d="M170.31,69.79h-22.3v25.74h-9.04V30.09h31.34c12.87,0,20.63,9.53,20.63,19.85s-7.76,19.85-20.63,19.85ZM169.52,37.56h-21.52v24.86h21.52c7.47,0,12.28-5.21,12.28-12.48s-5.6-12.38-12.28-12.38Z"/>
    <path d="M238.3,95.53l-6.49-16.61h-29.28l-6.58,16.61h-8.94l26.33-65.44h7.57l26.33,65.44h-8.94ZM217.18,39.92l-12.18,32.03h24.27l-12.09-32.03Z"/>
    <path d="M289.4,69.79h-22.3v25.74h-9.04V30.09h31.34c12.87,0,20.63,9.53,20.63,19.85s-7.76,19.85-20.63,19.85ZM288.61,37.56h-21.52v24.86h21.52c7.47,0,12.28-5.21,12.28-12.48s-5.6-12.38-12.28-12.38Z"/>
    <path d="M369.77,95.53l-19.55-26.63h-19.65v26.63h-9.04V30.09h31.74c12.58,0,20.44,9.24,20.44,19.46,0,8.16-4.91,15.62-13.66,18.18l20.44,27.81h-10.71ZM352.18,37.56h-21.62v24.07h21.62c7.47,0,12.38-4.81,12.38-12.09s-5.7-11.99-12.38-11.99Z"/>
    <path d="M391.98,95.53V30.09h45.2v7.76h-36.06v19.95h33.8v7.76h-33.8v22.21h36.06v7.76h-45.2Z"/>
  </g>
</svg>